<?xml version="1.0" encoding="UTF-8"?>
<svg id="CREATE_ACCT" xmlns="http://www.w3.org/2000/svg" viewBox="0 0 503.99 503.97">
  <defs>
    <style>
      .cls-1 {
        fill: #fff;
      }
    </style>
  </defs>
  <path class="cls-1" d="M209.66,2.36c-66.08-.12-119.98,53.42-120.21,119.44-.23,66.25,53.51,120.33,119.73,120.48,66.17.15,120.26-53.83,120.25-120-.01-66.04-53.7-119.8-119.77-119.92ZM277.48,392.1c-1.28,49.96,42.13,108.73,107.97,108.09,59.93-.58,107.89-48.21,107.93-108.02.04-58.6-49.68-107.99-108.58-107.85-59.67.13-107.42,48.1-107.32,107.79Z"/>
  <path d="M26.93,502.09c-11.97-4.63-16-13.55-15.66-26.05.58-21.62.63-43.27.05-64.89-.97-36.18,14.16-64.76,40.53-88.12,28.51-25.25,62.49-39.38,99.34-46.89,49.74-10.13,98.92-7.47,147.26,8.39,1.23.4,2.42.89,5.2,3.01-1.32.55-2.88.83-3.94,1.7-61.55,50.34-70.25,144.1-5.57,205.56,2.8,2.66,6.03,4.87,9.05,7.3H26.93Z"/>
  <path d="M209.66,2.36c66.07.12,119.76,53.88,119.77,119.92.01,66.17-54.08,120.15-120.25,120-66.22-.15-119.96-54.24-119.73-120.48.23-66.01,54.13-119.56,120.21-119.44Z"/>
  <path d="M277.48,392.1c-.11-59.69,47.65-107.66,107.32-107.79,58.9-.13,108.62,49.25,108.58,107.85-.04,59.82-48,107.44-107.93,108.02-65.84.64-109.25-58.13-107.97-108.09ZM397.3,405.98h45.77v-23.98h-45.77v-45.53h-22.1v45.77h-45.43v24.11h45.74v45.57h21.79v-45.95Z"/>
  <path class="cls-1" d="M397.3,405.98v45.95h-21.79v-45.57h-45.74v-24.11h45.43v-45.77h22.1v45.53h45.77v23.98h-45.77Z"/>
</svg>