<?xml version="1.0"?>
<svg id="HALF-DAY_PASS" xmlns="http://www.w3.org/2000/svg" viewBox="0 0 516.07 516.07">
  <defs>
    
  </defs>
  <path d="M270.6,300.54c-31.35,43.65-39.09,90.33-22.46,141.26-2.22,0-3.9,0-5.59,0-71.99,0-143.99,0-215.98,0-13.37,0-19.7-6.32-19.7-19.67,0-85.67,0-171.33,0-257,0-1.71,0-3.42,0-5.49h431.76v91.13c-4.8-1.37-9.48-2.9-14.25-4.03-40.34-9.52-78.21-3.37-113.75,17.9-2.63,1.57-6.05,2.49-9.12,2.55-14.36.26-28.73.08-43.09.13-10.63.03-18.04,6.83-18.09,16.5-.05,9.69,7.34,16.63,17.86,16.72,3.8.04,7.6,0,12.41,0ZM97.83,267.23c-2.59,0-5.19-.05-7.78,0-9.13.2-16.32,7.05-16.67,15.82-.35,8.8,6.22,16.51,15.27,17.21,6.02.46,12.13.45,18.15.01,9.08-.67,15.64-8.27,15.36-17.12-.28-8.8-7.42-15.7-16.54-15.93-2.59-.06-5.19,0-7.78-.01ZM97.83,378.56c2.59,0,5.19.07,7.78-.01,9.15-.28,16.26-7.15,16.54-15.93.28-8.84-6.29-16.46-15.37-17.11-6.02-.44-12.13-.45-18.15.02-9.02.69-15.63,8.46-15.27,17.22.36,8.75,7.52,15.56,16.68,15.82,2.59.07,5.19.01,7.78,0ZM180.97,221.76c3.11,0,6.23.18,9.33-.03,7.98-.54,14.38-6.78,15.1-14.52.8-8.57-4.14-16.63-12.4-17.71-7.78-1.02-15.89-.98-23.68,0-7.71.97-13.12,9.19-12.56,16.74.62,8.32,7.12,14.94,15.39,15.48,2.93.19,5.87.03,8.81.03ZM180.83,300.53c4-.26,7.85-.14,11.55-.84,8.53-1.63,13.79-9.08,13.03-17.86-.69-7.95-7.23-14.32-15.5-14.66-5.87-.25-11.76-.25-17.63.02-8.31.39-14.82,7-15.51,15.34-.64,7.74,5.01,15.49,12.91,17.09,3.69.74,7.54.65,11.14.92ZM264.75,189.19s0,.01,0,.02c-3.11,0-6.23-.16-9.33.03-7.87.5-14.34,6.88-15.01,14.62-.71,8.29,4.17,16.49,12.02,17.52,7.95,1.04,16.23,1.02,24.2.05,7.66-.93,13.04-9.27,12.42-16.83-.69-8.38-7.19-14.9-15.48-15.37-2.93-.17-5.88-.03-8.81-.03ZM347.98,222.63c3.68-.28,7.71-.2,11.58-.97,8.15-1.62,13.64-9.41,12.86-17.59-.76-7.99-7.35-14.49-15.43-14.84-5.87-.25-11.76-.24-17.64-.02-8.3.32-15.1,7.05-15.66,15.15-.58,8.29,4.95,15.8,13.16,17.36,3.53.67,7.21.6,11.13.89ZM181.26,378.43c2.94,0,5.89.16,8.82-.03,8.74-.58,15.39-7.76,15.42-16.47.03-8.68-6.61-16.1-15.3-16.58-6.03-.33-12.12-.35-18.15,0-8.57.51-15.45,8.27-15.32,16.71.14,8.56,7.04,15.81,15.71,16.34,2.93.18,5.88.03,8.82.03ZM97.82,221.84c3.28,0,6.59.28,9.84-.06,8.06-.84,14.23-7.68,14.5-15.71.28-8.29-5.59-15.96-13.83-16.74-7.01-.67-14.19-.66-21.2.01-7.98.76-13.85,8.3-13.77,16.3.08,8.2,6.39,15.32,14.62,16.15,3.25.33,6.56.05,9.84.04Z"></path>
  <path class="cls-1" d="M389.23,275.62c64.06.05,116.2,52.24,116.21,116.31,0,64.25-52.42,116.52-116.71,116.34-64-.18-116.05-52.51-115.94-116.59.11-64.02,52.38-116.12,116.45-116.07ZM372.49,366.93c0,8.13.03,16.26-.01,24.38-.02,5.12,1.77,9.38,5.42,13,10.55,10.48,21,21.06,31.57,31.53,7.56,7.49,17.66,7.93,24.51,1.23,7.03-6.89,6.6-17-1.14-24.81-7.91-7.98-15.79-16.01-23.89-23.8-2.47-2.38-3.33-4.82-3.29-8.16.16-12.45.13-24.9.04-37.35-.07-10.07-7.24-17.5-16.65-17.47-9.39.03-16.46,7.48-16.55,17.58-.07,7.95-.01,15.91,0,23.87Z"></path>
  <path d="M247.82,59.32h49.9c0-11.26-.15-22.29.05-33.31.17-9.04,7.48-16.15,16.26-16.29,9.03-.15,16.55,6.97,16.85,16.22.21,6.4.05,12.81.06,19.21,0,4.63,0,9.26,0,14.14h49.86c0-6.97,0-13.99,0-21.01,0-3.81-.06-7.62.02-11.42.18-9.72,7.3-17.09,16.49-17.15,9.22-.05,16.56,7.25,16.69,16.92.14,10.72.03,21.43.03,32.94,3.09,0,5.96-.11,8.81.02,8.59.39,15.83,6.95,15.99,15.43.32,16.76.09,33.53.09,50.65H6.87c0-4.98,0-9.94,0-14.9,0-10.56,0-21.12,0-31.68.01-13.09,6.37-19.52,19.32-19.54,7.23-.01,14.46,0,22.24,0,0-11.48-.12-22.5.04-33.52.11-7.64,5.33-13.93,12.65-15.85,6.67-1.75,14.44,1.14,17.84,7.46,1.64,3.05,2.46,6.85,2.57,10.34.33,10.33.12,20.68.12,31.3h49.86c0-3.31,0-6.69,0-10.06,0-6.92-.02-13.85,0-20.77.03-11.05,6.74-18.66,16.48-18.73,9.96-.07,16.73,7.57,16.75,18.97.02,10.03,0,20.06,0,30.48h49.86c0-9.74-.03-19.54.02-29.34.01-2.41-.07-4.9.46-7.22,1.87-8.11,9.63-13.62,17.74-12.83,8.13.79,14.76,7.6,14.94,15.98.23,11.04.06,22.1.06,33.56Z"></path>
</svg>