<?xml version="1.0" encoding="UTF-8"?>
<svg id="LOGIN" xmlns="http://www.w3.org/2000/svg" viewBox="0 0 503.99 503.97">
  <defs>
    <style>
      .cls-1 {
        fill: #fff;
      }
    </style>
  </defs>
  <rect x="93.68" y="407.23" width="334.17" height="94.51"/>
  <g>
    <path class="cls-1" d="M181.35,463.8c-3.63,5.97-7.02,11.55-10.68,17.56-3.91-3.17-7.54-6.12-11.67-9.48,4.73-4.95,9.28-9.72,14.36-15.03-6.51-1.53-12.64-2.97-19.2-4.51,1.97-4.7,3.79-9.03,5.81-13.84,5.89,2.95,11.58,5.81,17.36,8.7-.68-6.43-1.35-12.86-2.06-19.6h13.86c-.66,6.59-1.32,13.13-2.03,20.16,6.41-2.83,12.54-5.53,18.93-8.35,1.42,4.68,2.79,9.2,4.32,14.24-6.53,1.17-12.8,2.3-19.7,3.53,4.41,5.25,8.63,10.26,13.15,15.65-3.94,2.56-7.79,5.05-11.92,7.72-3.55-5.64-6.95-11.05-10.54-16.76Z"/>
    <path class="cls-1" d="M329.09,481.35c-4.04-3.28-7.62-6.19-11.67-9.48,4.76-4.99,9.31-9.76,14.36-15.04-6.52-1.52-12.67-2.96-19.18-4.48,1.49-4.72,2.87-9.1,4.37-13.88,5.9,2.97,11.52,5.8,17.32,8.73-.65-6.41-1.3-12.81-1.99-19.55h13.83c-.66,6.47-1.33,13-2.06,20.11,6.38-2.81,12.47-5.49,18.95-8.35,1.88,4.65,3.72,9.19,5.76,14.23-6.56,1.18-12.83,2.3-19.71,3.54,4.44,5.28,8.66,10.3,13.16,15.65-3.96,2.56-7.82,5.06-11.94,7.72-3.54-5.63-6.94-11.05-10.52-16.75-3.58,5.88-7,11.5-10.69,17.54Z"/>
    <path class="cls-1" d="M250.2,481.33c-3.98-3.23-7.56-6.14-11.63-9.45,4.77-5.01,9.38-9.84,14.37-15.07-6.45-1.49-12.54-2.9-19.17-4.43,1.45-4.66,2.8-9.01,4.32-13.9,5.92,2.97,11.51,5.77,17.31,8.68-.64-6.46-1.27-12.86-1.93-19.56h13.78c-.64,6.59-1.28,13.13-1.96,20.14,6.42-2.84,12.46-5.5,18.91-8.36,1.86,4.65,3.68,9.2,5.7,14.26-6.68,1.2-12.93,2.32-19.71,3.53,4.47,5.28,8.66,10.23,13.21,15.62-3.9,2.53-7.73,5.02-11.95,7.76-3.49-5.55-6.88-10.95-10.51-16.73-3.62,5.89-7.09,11.55-10.74,17.49Z"/>
  </g>
  <g>
    <path class="cls-1" d="M278.5,320.24v63.26c1.81-.69,3.07-1.12,4.29-1.64,47.2-20.05,94.37-40.15,141.61-60.1,3.02-1.28,3.46-2.99,3.45-5.84-.06-103.17-.05-206.33-.05-309.5V2.05h-242.01c0,1.88,0,3.49,0,5.09,0,23.95-.02,47.91.01,71.86.01,7.68-.93,6.78,6.64,6.82,7.43.04,14.85,0,22.74,0V31.49h142.45c-2.45,1.09-3.79,1.71-5.15,2.28-23.22,9.87-46.41,19.81-69.7,29.53-3.39,1.41-4.54,3.09-4.53,6.83.13,71.73.1,143.45.1,215.18v5.07c-.9.26-1.28.46-1.66.46-19.56.03-39.13,0-58.69.09-2.86.01-2.93-1.55-2.93-3.66.04-11.16.03-22.32,0-33.48,0-1.43-.13-2.86-.19-4.16h-28.92c-.07,1.54-.18,2.75-.18,3.95-.01,20.69.1,41.38-.1,62.06-.04,3.98,1.35,4.68,4.91,4.66,27.44-.13,54.89-.07,82.33-.07,1.61,0,3.23,0,5.57,0ZM163.27,188.8c0,10.44-.05,20.22.05,30,.02,1.5.71,2.99,1.09,4.48,1.46-.51,3.11-.74,4.35-1.58,25.11-16.94,50.18-33.95,75.24-50.96,4.14-2.81,4.11-3.72-.14-6.61-10.45-7.11-20.91-14.19-31.37-21.27-14.84-10.06-29.68-20.13-44.54-30.16-3.36-2.27-4.57-1.64-4.65,2.37-.09,4.35-.02,8.71-.02,13.07,0,5.95,0,11.9,0,18.24-2.01,0-3.47,0-4.93,0-19.16,0-38.31.07-57.47-.06-3.39-.02-4.5,1.06-4.45,4.43.16,11.02.22,22.05-.03,33.07-.09,4.09,1.47,5.02,5.23,5,18.88-.13,37.77-.03,56.65-.01,1.48,0,2.96,0,5,0Z"/>
    <path d="M278.5,320.24c-2.34,0-3.95,0-5.57,0-27.44,0-54.89-.06-82.33.07-3.56.02-4.95-.69-4.91-4.66.21-20.69.09-41.37.1-62.06,0-1.21.11-2.41.18-3.95h28.92c.06,1.3.18,2.73.19,4.16.02,11.16.03,22.32,0,33.48,0,2.1.07,3.67,2.93,3.66,19.56-.09,39.13-.06,58.69-.09.38,0,.76-.2,1.66-.46v-5.07c0-71.73.03-143.45-.1-215.18,0-3.74,1.14-5.42,4.53-6.83,23.29-9.72,46.48-19.66,69.7-29.53,1.36-.58,2.7-1.2,5.15-2.28h-142.45v54.35c-7.89,0-15.32.03-22.74,0-7.57-.04-6.63.86-6.64-6.82-.03-23.95-.01-47.91-.01-71.86,0-1.6,0-3.2,0-5.09h242.01v4.37c0,103.17,0,206.33.05,309.5,0,2.85-.43,4.56-3.45,5.84-47.24,19.94-94.42,40.04-141.61,60.1-1.22.52-2.48.95-4.29,1.64v-63.26Z"/>
    <path d="M163.27,188.8c-2.04,0-3.52,0-5,0-18.88-.02-37.77-.12-56.65.01-3.76.03-5.32-.91-5.23-5,.24-11.02.18-22.05.03-33.07-.05-3.37,1.07-4.46,4.45-4.43,19.16.13,38.31.06,57.47.06,1.46,0,2.92,0,4.93,0,0-6.34,0-12.29,0-18.24,0-4.36-.06-8.71.02-13.07.08-4.01,1.29-4.64,4.65-2.37,14.87,10.02,29.7,20.1,44.54,30.16,10.46,7.09,20.92,14.17,31.37,21.27,4.25,2.89,4.28,3.81.14,6.61-25.06,17.01-50.13,34.02-75.24,50.96-1.24.84-2.89,1.07-4.35,1.58-.38-1.49-1.07-2.98-1.09-4.48-.1-9.78-.05-19.56-.05-30Z"/>
  </g>
</svg>