<?xml version="1.0"?>
<svg id="Layer_1" xmlns="http://www.w3.org/2000/svg" viewBox="0 0 219.22 73.41">
  <defs>
    
  </defs>
  <g id="SPACE">
    <path d="M4.59,67.44c-.05-.39-.23-.68-.56-.9-.32-.21-.72-.32-1.19-.32-.35,0-.65.06-.9.17-.26.11-.46.27-.6.46-.14.2-.21.42-.21.67,0,.21.05.39.15.53.1.15.23.27.39.37.16.1.32.18.49.24.17.06.33.11.48.15l.79.21c.2.05.43.13.68.22.25.09.49.22.72.38.23.16.42.37.57.62s.22.56.22.92c0,.42-.11.8-.33,1.14s-.54.61-.96.81-.93.3-1.53.3c-.56,0-1.04-.09-1.45-.27-.41-.18-.73-.43-.96-.75-.23-.32-.36-.7-.39-1.12h.97c.03.29.12.54.3.73s.39.33.66.43.56.14.87.14c.36,0,.68-.06.97-.18.29-.12.51-.28.68-.49s.25-.46.25-.74c0-.26-.07-.47-.22-.63-.14-.16-.33-.29-.57-.4-.24-.1-.49-.19-.76-.27l-.96-.27c-.61-.17-1.09-.42-1.44-.75-.36-.32-.53-.75-.53-1.27,0-.44.12-.82.36-1.14s.56-.58.96-.76c.4-.18.85-.27,1.35-.27s.95.09,1.34.27c.39.18.7.42.93.73.23.31.35.66.36,1.05h-.91Z"></path>
    <path d="M53.47,73.28v-7.79h2.63c.61,0,1.11.11,1.5.33.39.22.68.52.87.89.19.37.28.79.28,1.25s-.09.88-.28,1.25c-.19.38-.47.67-.86.9-.39.22-.88.33-1.49.33h-1.89v-.84h1.86c.42,0,.75-.07,1.01-.22.25-.14.44-.34.55-.59.12-.25.17-.53.17-.84s-.06-.59-.17-.84c-.12-.25-.3-.44-.56-.58-.26-.14-.6-.21-1.02-.21h-1.66v6.95h-.94Z"></path>
    <path d="M106.9,73.28h-.99l2.86-7.79h.97l2.86,7.79h-.99l-2.33-6.56h-.06l-2.33,6.56ZM107.26,70.23h3.98v.84h-3.98v-.84Z"></path>
    <path d="M166.39,67.92h-.94c-.06-.27-.15-.51-.29-.72-.14-.21-.31-.38-.5-.52s-.41-.25-.65-.32c-.24-.07-.49-.11-.74-.11-.47,0-.9.12-1.28.36-.38.24-.68.59-.91,1.05-.22.46-.34,1.03-.34,1.71s.11,1.24.34,1.71.53.81.91,1.05c.38.24.81.36,1.28.36.26,0,.51-.04.74-.11.24-.07.46-.18.65-.32.2-.14.36-.31.5-.52s.23-.44.29-.71h.94c-.07.4-.2.75-.39,1.07-.19.31-.42.58-.7.8s-.59.39-.94.5c-.35.11-.72.17-1.11.17-.66,0-1.25-.16-1.77-.49-.52-.32-.92-.79-1.22-1.38-.3-.6-.44-1.31-.44-2.13s.15-1.53.44-2.13c.3-.6.7-1.06,1.22-1.38.52-.32,1.11-.49,1.77-.49.39,0,.76.06,1.11.17.35.11.66.28.94.5.28.22.51.49.7.8.19.31.32.67.39,1.07Z"></path>
    <path d="M214.22,73.28v-7.79h4.7v.84h-3.76v2.63h3.51v.84h-3.51v2.65h3.82v.84h-4.76Z"></path>
  </g>
  <g id="BOX">
    <polygon id="GREEN_BOX" fill="#207028" points="66.95 1.21 56.61 57.41 112.49 57.41 123.48 1.21 66.95 1.21"></polygon>
  </g>
  <g id="ORK" fill="#080A0A">
    <path d="M129.04,42.68c0-6.13.44-9.77,2.17-12.65,2.85-.39,5.73-.75,11.19-.75,9.96,0,12.14,2.97,12.14,12.49s-2.29,15.06-13.01,15.06-12.49-4.31-12.49-14.15ZM148.41,41.69c0-8.03-.2-10.2-6.41-10.2-3.95,0-4.67.04-6.21.2-.4,2.57-.63,4.59-.63,10.83,0,9.96.67,12.14,6.8,12.14,6.44,0,6.44-2.93,6.44-12.97Z"></path>
    <path d="M180.2,55.45c-1.94-1.82-3.72-5.1-6.72-10.79-1.11-.2-2.41-.44-3.48-.75v9.92c1.3.2,2.06.44,2.85.75.16.44.2.71.2,1.07,0,.12,0,.36-.04.55h-11.78c-.04-.16-.04-.32-.04-.44,0-.51.12-.83.36-1.42.63-.28,1.38-.51,2.85-.75v-21.67c-1.38-.2-2.17-.4-2.93-.67-.2-.47-.24-.71-.24-1.11,0-.12,0-.28.08-.47l4.31-.12c5.14-.12,7.12-.16,8.5-.16,3.16,0,5.61.12,8.3.39.99,2.06,1.78,3.99,1.78,7.2,0,2.65-1.86,5.97-5.77,6.8.32.36.59.75.91,1.19,3.04,5.54,4.47,9.33,8.26,9.33,0,.99-.12,1.62-.36,2.14-.87.24-1.66.39-2.81.39-1.74,0-3.04-.47-4.23-1.38ZM178.06,37.02c0-2.53-.2-3.76-.67-5.5-1.19-.04-2.49-.08-3.76-.08-1.15,0-2.49,0-3.64.04v10.67c1.27.12,2.29.12,3.68.12,3.32,0,4.39-1.66,4.39-5.26Z"></path>
    <path d="M192.25,55.8c0-.51.12-.87.36-1.42.63-.28,1.38-.51,2.81-.79v-21.39c-1.42-.28-2.17-.51-2.81-.79-.24-.55-.36-.91-.36-1.42,0-.12,0-.28.04-.43h11.9c.04.24.04.39.04.55,0,.36-.04.55-.16.99-.79.32-1.54.55-2.89.71v22.18c1.34.16,2.1.4,2.89.71.12.44.16.63.16.99,0,.16,0,.32-.04.55h-11.9c-.04-.16-.04-.32-.04-.44ZM212.26,55.57c-1.54-1.54-4.19-4.39-10.48-12.73v-.12l3.6-3.2,6.05-7.43c-1.11-.24-1.78-.44-2.33-.67-.32-.55-.44-.91-.44-1.42,0-.12,0-.28.04-.43h9.45v.55c0,.36,0,.55-.12.99-.79.43-1.5.71-3.28.87l-8.07,9.01c3.91,5.22,6.44,8.38,8.46,10.67,1.7,2.06,2.41,2.49,4.07,2.61,0,1.03-.12,1.42-.32,1.98-.83.24-1.86.51-2.69.51-1.78,0-2.77-.16-3.95-1.19Z"></path>
  </g>
  <g id="LRG_W">
    <path id="GRAY_W" fill="#B9BBB4" d="M73,55.94L61.75,5.81c-2.45-.6-3.61-1.11-4.69-1.79-.36-1.2-.58-1.96-.58-3.07,0-.26,0-.6.07-.94h20.41c.07.51.07.85.07,1.2,0,.77-.07,1.2-.36,2.14-1.44.6-2.81,1.11-5.05,1.45l7.72,37.58h.14L89.87,3.5c.36-1.54,1.37-2.39,2.74-2.39h3.82l10.96,41.76h.14l8.87-37.24c-2.45-.6-3.75-1.03-4.98-1.62-.43-1.2-.65-1.96-.65-3.07,0-.26,0-.6.07-.94h15.22v1.2c0,.77,0,1.2-.22,2.14-1.15.77-2.24,1.28-4.47,1.62l-12.91,53.55h-4.25c-1.37,0-2.38-.85-2.74-2.39l-10.38-38.95h-.14l-10.75,41.34h-4.47c-1.37,0-2.31-.85-2.74-2.56Z"></path>
    <path id="BLACK_W" d="M73,55.94L61.75,5.81c-2.45-.6-3.61-1.11-4.69-1.79-.36-1.2-.58-1.96-.58-3.07,0-.26,0-.6.07-.94h20.41c.07.51.07.85.07,1.2,0,.77-.07,1.2-.36,2.14-1.44.6-2.81,1.11-5.05,1.45l7.72,37.58h.14L89.87,3.5c.36-1.54,1.37-2.39,2.74-2.39h3.82l10.96,41.76h.14l8.87-37.24c-2.45-.6-3.75-1.03-4.98-1.62-.43-1.2-.65-1.96-.65-3.07,0-.26,0-.6.07-.94h15.22v1.2c0,.77,0,1.2-.22,2.14-1.15.77-2.24,1.28-4.47,1.62l-12.91,53.55h-4.25c-1.37,0-2.38-.85-2.74-2.39l-10.38-38.95h-.14l-10.75,41.34h-4.47c-1.37,0-2.31-.85-2.74-2.56Z"></path>
  </g>
  <g id="NE" fill="#080A0A">
    <path d="M6.12,8.22h-.12l.04,19.37c1.34.16,2.1.4,2.89.71.16.44.2.63.2.99,0,.16,0,.32-.04.55H.07c-.04-.16-.04-.32-.04-.44,0-.51.12-.87.36-1.42.63-.28,1.38-.51,2.81-.79V5.81c-1.42-.28-2.17-.51-2.81-.79-.24-.55-.36-.91-.36-1.42,0-.12,0-.28.04-.43h8.9l13.09,20.16h.08l-.04-17.51c-1.42-.28-2.14-.51-2.81-.79-.24-.55-.36-.91-.36-1.42,0-.12,0-.28.04-.43h8.97c.04.24.04.39.04.55,0,.36-.04.55-.2.99-.79.32-1.54.55-2.89.71v24.75h-4.03L6.12,8.22Z"></path>
    <path d="M33.36,29.41c0-.51.12-.87.36-1.42.63-.28,1.38-.51,2.81-.79V5.81c-1.42-.28-2.17-.51-2.81-.79-.24-.55-.36-.91-.36-1.42,0-.12,0-.28.04-.43h19.61l.24,7.04c-.24.08-.59.12-.87.12-.67,0-1.07-.16-1.74-.47-.71-1.98-.95-2.77-1.3-4.67h-7.08v9.65l8.14-.32v2.41h-8.14v10.87h7.59c.36-1.78.59-2.49,1.27-4.31.67-.32,1.07-.44,1.74-.44.32,0,.71.04.91.08l-.2,6.72h-20.16c-.04-.16-.04-.32-.04-.44Z"></path>
  </g>
</svg>