<?xml version="1.0" encoding="UTF-8"?>
<svg id="Layer_1" xmlns="http://www.w3.org/2000/svg" viewBox="0 0 247.54 81.52">
  <defs>
    <style>
      .cls-1 {
        fill: #fff;
      }

      .cls-2 {
        isolation: isolate;
      }
    </style>
  </defs>
  <g>
    <path class="cls-1" d="M137.08,4.23l-14.28,59.23h4.23l11.64-59.54c-.47.11-.99.22-1.6.31Z"/>
    <path class="cls-1" d="M121.27,47.05h.17l10.02-42.05c-2.77-.68-4.23-1.15-5.62-1.83-.45-1.23-.68-2.08-.72-3.17h-16.2l12.35,47.05Z"/>
    <path class="cls-1" d="M89.76,46.46L101.48,2.59c.33-1.41,1.15-2.3,2.27-2.59h-16.76c0,.85-.09,1.34-.41,2.39-1.63.68-3.17,1.26-5.7,1.64l8.71,42.44h.16Z"/>
    <path class="cls-1" d="M114.6,62l-11.73-43.98h-.16l-11.82,45.44h24.35c-.29-.4-.51-.88-.65-1.46Z"/>
    <path class="cls-1" d="M82.43,61.81h0s-10-44.56-10-44.56l-8.5,46.22h19.22c-.31-.44-.55-.98-.72-1.66Z"/>
  </g>
  <g class="cls-2">
    <path class="cls-1" d="M6.92,7.91h-.13l.05,21.87c1.52.18,2.36.45,3.26.8.18.49.22.72.22,1.12,0,.18,0,.35-.05.62H.09c-.05-.18-.05-.35-.05-.49,0-.58.13-.99.4-1.61.72-.32,1.56-.58,3.17-.89V5.18c-1.61-.32-2.46-.58-3.17-.89C.18,3.66.05,3.26.05,2.68c0-.13,0-.32.05-.49h10.04l14.78,22.77h.09l-.05-19.78c-1.61-.32-2.41-.58-3.17-.89-.27-.62-.4-1.02-.4-1.61,0-.13,0-.32.05-.49h10.14c.05.27.05.45.05.62,0,.4-.05.62-.22,1.12-.89.35-1.74.62-3.26.8v27.95h-4.56L6.93,7.89v.03Z"/>
    <path class="cls-1" d="M37.67,31.84c0-.58.13-.99.4-1.61.72-.32,1.56-.58,3.17-.89V5.19c-1.61-.32-2.46-.58-3.17-.89-.27-.62-.4-1.02-.4-1.61,0-.13,0-.32.05-.49h22.14l.27,7.94c-.27.09-.67.13-.99.13-.76,0-1.21-.18-1.96-.54-.8-2.23-1.07-3.12-1.47-5.27h-7.99v10.89l9.2-.35v2.72h-9.2v12.28h8.57c.4-2.01.67-2.81,1.43-4.86.76-.35,1.21-.49,1.96-.49.35,0,.8.05,1.02.09l-.22,7.59h-22.77c-.05-.18-.05-.35-.05-.49v.02Z"/>
  </g>
  <g class="cls-2">
    <path class="cls-1" d="M145.72,46.83c0-6.92.49-11.03,2.46-14.29,3.22-.45,6.47-.85,12.63-.85,11.25,0,13.71,3.35,13.71,14.11s-2.59,17.01-14.68,17.01-14.11-4.86-14.11-15.99ZM167.59,45.71c0-9.06-.22-11.51-7.24-11.51-4.46,0-5.26.05-7.01.22-.45,2.9-.72,5.18-.72,12.23,0,11.25.76,13.71,7.68,13.71,7.28,0,7.28-3.3,7.28-14.65Z"/>
    <path class="cls-1" d="M203.48,61.24c-2.19-2.06-4.19-5.76-7.59-12.19-1.25-.22-2.72-.49-3.92-.85v11.21c1.47.22,2.33.49,3.22.85.18.49.22.8.22,1.21,0,.13,0,.4-.05.62h-13.31c-.05-.18-.05-.35-.05-.49,0-.58.13-.94.4-1.61.72-.32,1.56-.58,3.22-.85v-24.47c-1.56-.22-2.46-.45-3.3-.76-.22-.54-.27-.8-.27-1.25,0-.13,0-.32.09-.54l4.86-.13c5.8-.13,8.04-.18,9.6-.18,3.57,0,6.34.13,9.37.45,1.12,2.33,2.01,4.51,2.01,8.13,0,2.99-2.1,6.74-6.52,7.68.35.4.67.85,1.02,1.34,3.44,6.25,5.04,10.54,9.33,10.54,0,1.12-.13,1.83-.4,2.41-.99.27-1.88.45-3.17.45-1.96,0-3.44-.54-4.78-1.56h0ZM201.07,40.44c0-2.86-.22-4.24-.76-6.2-1.34-.05-2.81-.09-4.24-.09-1.29,0-2.81,0-4.11.05v12.05c1.43.13,2.59.13,4.15.13,3.75,0,4.96-1.88,4.96-5.93h0Z"/>
    <path class="cls-1" d="M217.09,61.64c0-.58.13-.99.4-1.61.72-.32,1.56-.58,3.17-.89v-24.15c-1.61-.32-2.46-.58-3.17-.89-.27-.62-.4-1.02-.4-1.61,0-.13,0-.32.05-.49h13.44c.05.27.05.45.05.62,0,.4-.05.62-.18,1.12-.89.35-1.74.62-3.26.8v25.05c1.52.18,2.36.45,3.26.8.13.49.18.72.18,1.12,0,.18,0,.35-.05.62h-13.44c-.05-.18-.05-.35-.05-.49v.02ZM239.68,61.38c-1.74-1.74-4.73-4.96-11.83-14.38v-.13l4.06-3.62,6.83-8.39c-1.25-.27-2.01-.49-2.63-.76-.35-.62-.49-1.02-.49-1.61,0-.13,0-.32.05-.49h10.67v.62c0,.4,0,.62-.13,1.12-.89.49-1.69.8-3.7.99l-9.1,10.18c4.42,5.9,7.28,9.47,9.55,12.05,1.92,2.33,2.72,2.81,4.59,2.95,0,1.16-.13,1.61-.35,2.23-.94.27-2.1.58-3.03.58-2.01,0-3.12-.18-4.46-1.34h0Z"/>
  </g>
  <g>
    <path class="cls-1" d="M5.19,74.78c-.06-.44-.26-.77-.62-1.01s-.82-.36-1.35-.36c-.39,0-.73.07-1.02.19-.29.13-.52.3-.68.52-.16.22-.24.47-.24.75,0,.23.06.44.17.6s.26.31.44.42.36.2.56.27c.2.07.37.13.54.17l.89.24c.23.07.48.14.76.25.28.1.55.25.81.43.26.19.47.42.64.7s.25.63.25,1.04c0,.47-.12.9-.37,1.28s-.6.69-1.08.91-1.05.33-1.72.33c-.63,0-1.17-.1-1.64-.31-.46-.2-.82-.48-1.08-.85-.26-.36-.41-.79-.45-1.26h1.1c.03.33.14.6.33.82s.45.38.74.48.62.16.98.16c.41,0,.77-.07,1.1-.2s.58-.32.77-.56.28-.52.28-.84c0-.29-.08-.53-.24-.72-.17-.19-.38-.33-.64-.45-.27-.11-.56-.21-.86-.3l-1.08-.31c-.69-.2-1.23-.48-1.63-.85s-.6-.85-.6-1.44c0-.49.13-.92.4-1.29s.63-.65,1.08-.86c.46-.2.96-.31,1.53-.31s1.07.1,1.51.31.79.47,1.05.83.4.74.41,1.19h-1.03,0Z"/>
    <path class="cls-1" d="M60.39,81.38v-8.79h2.97c.69,0,1.26.12,1.69.37.44.25.76.59.98,1s.32.89.32,1.4-.1.99-.32,1.41-.53.76-.98,1.01c-.44.25-1,.37-1.68.37h-2.13v-.95h2.09c.47,0,.86-.08,1.13-.24.29-.17.49-.38.62-.66s.2-.6.2-.95-.07-.67-.2-.95-.34-.49-.63-.65-.67-.24-1.15-.24h-1.87v7.85h-1.06.02Z"/>
    <path class="cls-1" d="M120.71,81.38h-1.12l3.23-8.79h1.1l3.23,8.79h-1.12l-2.63-7.4h-.07l-2.63,7.4h0ZM121.13,77.94h4.5v.95h-4.5v-.95Z"/>
    <path class="cls-1" d="M187.89,75.33h-1.06c-.07-.31-.18-.58-.33-.81-.16-.23-.34-.43-.57-.59s-.47-.28-.73-.36-.55-.12-.84-.12c-.53,0-1.01.13-1.44.4s-.77.67-1.02,1.19c-.25.52-.38,1.16-.38,1.93s.13,1.4.38,1.93.6.92,1.02,1.19.91.4,1.44.4c.29,0,.58-.04.84-.12.27-.08.51-.2.73-.35.22-.16.41-.35.57-.59s.27-.5.33-.81h1.06c-.08.45-.22.86-.44,1.21s-.47.66-.79.9-.67.44-1.06.57-.81.2-1.26.2c-.75,0-1.41-.19-2-.55s-1.04-.88-1.38-1.56c-.33-.68-.5-1.48-.5-2.41s.17-1.73.5-2.4c.33-.68.79-1.2,1.38-1.56s1.25-.55,2-.55c.45,0,.86.07,1.26.2.39.13.74.32,1.06.57.32.25.58.55.79.9s.35.75.44,1.21h0Z"/>
    <path class="cls-1" d="M241.9,81.38v-8.79h5.31v.95h-4.24v2.97h3.97v.95h-3.97v2.99h4.31v.95h-5.38Z"/>
  </g>
</svg>
