<?xml version="1.0"?>
<svg id="B_x2F_W_FREIGHT__x26__AKTIV_GROTESK_copy" xmlns="http://www.w3.org/2000/svg" viewBox="0 0 361.43 201.63">
  <defs>
    
  </defs>
  <g id="SPACE">
    <path d="M78.15,147.27c-.06-.47-.28-.83-.67-1.09-.39-.26-.88-.39-1.45-.39-.42,0-.78.07-1.1.2-.31.14-.56.32-.73.56-.17.24-.26.51-.26.81,0,.25.06.47.18.65.12.18.28.33.47.45.19.12.39.22.6.29.21.08.4.14.58.18l.96.26c.25.07.52.15.82.27.3.11.59.27.87.46.28.2.51.45.69.75s.27.68.27,1.12c0,.51-.13.97-.4,1.38s-.65.74-1.16.98-1.13.36-1.85.36c-.68,0-1.26-.11-1.76-.33-.49-.22-.88-.52-1.16-.91-.28-.39-.44-.85-.48-1.36h1.18c.03.36.15.65.36.88s.48.41.8.52.67.17,1.05.17c.44,0,.83-.07,1.18-.21.35-.14.62-.34.83-.6s.3-.56.3-.9c0-.31-.09-.57-.26-.77-.18-.2-.41-.36-.69-.48-.29-.12-.6-.23-.93-.32l-1.16-.33c-.74-.21-1.32-.52-1.75-.91-.43-.39-.65-.91-.65-1.55,0-.53.14-.99.43-1.39s.68-.7,1.16-.92c.49-.22,1.03-.33,1.64-.33s1.15.11,1.62.33c.47.22.85.51,1.13.89.28.38.43.8.44,1.28h-1.11Z"></path>
    <path d="M137.5,154.36v-9.45h3.19c.74,0,1.35.13,1.82.4.47.27.82.63,1.05,1.08.23.45.34.96.34,1.51s-.11,1.06-.34,1.52c-.23.46-.57.82-1.05,1.09-.47.27-1.07.4-1.81.4h-2.29v-1.02h2.25c.51,0,.92-.09,1.22-.26.31-.18.53-.41.67-.71.14-.3.21-.64.21-1.02s-.07-.72-.21-1.02c-.14-.3-.37-.53-.68-.7-.31-.17-.72-.26-1.24-.26h-2.01v8.44h-1.14Z"></path>
    <path d="M202.36,154.36h-1.2l3.47-9.45h1.18l3.47,9.45h-1.2l-2.83-7.96h-.07l-2.83,7.96ZM202.81,150.67h4.84v1.02h-4.84v-1.02Z"></path>
    <path d="M274.6,147.86h-1.14c-.07-.33-.19-.62-.35-.87-.17-.25-.37-.46-.61-.63s-.5-.3-.79-.39c-.29-.09-.59-.13-.9-.13-.57,0-1.09.14-1.55.43-.46.29-.83.72-1.1,1.28-.27.56-.41,1.25-.41,2.07s.14,1.51.41,2.07.64.99,1.1,1.28c.46.29.98.43,1.55.43.31,0,.62-.04.9-.13.29-.09.55-.21.79-.38.24-.17.44-.38.61-.63s.29-.54.35-.87h1.14c-.09.48-.24.92-.47,1.3-.23.38-.51.71-.85.97s-.72.47-1.14.61c-.42.14-.87.21-1.35.21-.81,0-1.52-.2-2.15-.59-.63-.39-1.12-.95-1.48-1.68-.36-.73-.54-1.59-.54-2.59s.18-1.86.54-2.58c.36-.73.85-1.29,1.48-1.68.63-.39,1.34-.59,2.15-.59.48,0,.92.07,1.35.21.42.14.8.34,1.14.61.34.27.62.59.85.97.23.38.38.81.47,1.3Z"></path>
    <path d="M332.67,154.36v-9.45h5.71v1.02h-4.56v3.19h4.27v1.02h-4.27v3.21h4.63v1.02h-5.78Z"></path>
  </g>
  <g id="BOX">
    <polygon id="GREEN_BOX" class="cls-2" points="153.86 66.86 141.31 135.1 209.16 135.1 222.5 66.86 153.86 66.86"></polygon>
  </g>
  <g id="ORK" class="cls-3">
    <path d="M229.25,117.21c0-7.44.53-11.86,2.64-15.36,3.46-.48,6.96-.91,13.58-.91,12.1,0,14.74,3.6,14.74,15.17s-2.78,18.29-15.79,18.29-15.17-5.23-15.17-17.19ZM252.77,116.01c0-9.74-.24-12.38-7.78-12.38-4.8,0-5.66.05-7.54.24-.48,3.12-.77,5.57-.77,13.15,0,12.1.82,14.74,8.26,14.74,7.83,0,7.83-3.55,7.83-15.75Z"></path>
    <path d="M291.36,132.71c-2.35-2.21-4.51-6.19-8.16-13.11-1.34-.24-2.93-.53-4.22-.91v12.05c1.58.24,2.5.53,3.46.91.19.53.24.86.24,1.3,0,.14,0,.43-.05.67h-14.31c-.05-.19-.05-.38-.05-.53,0-.62.14-1.01.43-1.73.77-.34,1.68-.62,3.46-.91v-26.31c-1.68-.24-2.64-.48-3.55-.82-.24-.58-.29-.86-.29-1.34,0-.14,0-.34.1-.58l5.23-.14c6.24-.14,8.64-.19,10.32-.19,3.84,0,6.82.14,10.08.48,1.2,2.5,2.16,4.85,2.16,8.74,0,3.22-2.26,7.25-7.01,8.26.38.43.72.91,1.1,1.44,3.7,6.72,5.42,11.33,10.03,11.33,0,1.2-.14,1.97-.43,2.59-1.06.29-2.02.48-3.41.48-2.11,0-3.7-.58-5.14-1.68ZM288.77,110.34c0-3.07-.24-4.56-.82-6.67-1.44-.05-3.02-.1-4.56-.1-1.39,0-3.02,0-4.42.05v12.96c1.54.14,2.78.14,4.46.14,4.03,0,5.33-2.02,5.33-6.38Z"></path>
    <path d="M306,133.14c0-.62.14-1.06.43-1.73.77-.34,1.68-.62,3.41-.96v-25.97c-1.73-.34-2.64-.62-3.41-.96-.29-.67-.43-1.1-.43-1.73,0-.14,0-.34.05-.53h14.45c.05.29.05.48.05.67,0,.43-.05.67-.19,1.2-.96.38-1.87.67-3.5.86v26.93c1.63.19,2.54.48,3.5.86.14.53.19.77.19,1.2,0,.19,0,.38-.05.67h-14.45c-.05-.19-.05-.38-.05-.53ZM330.29,132.86c-1.87-1.87-5.09-5.33-12.72-15.46v-.14l4.37-3.89,7.34-9.02c-1.34-.29-2.16-.53-2.83-.82-.38-.67-.53-1.1-.53-1.73,0-.14,0-.34.05-.53h11.47v.67c0,.43,0,.67-.14,1.2-.96.53-1.82.86-3.98,1.06l-9.79,10.95c4.75,6.34,7.83,10.18,10.27,12.96,2.06,2.5,2.93,3.02,4.94,3.17,0,1.25-.14,1.73-.38,2.4-1.01.29-2.26.62-3.26.62-2.16,0-3.36-.19-4.8-1.44Z"></path>
  </g>
  <g id="LRG_W">
    <path id="GRAY_W" class="cls-1" d="M161.2,133.31l-13.66-60.87c-2.98-.73-4.38-1.35-5.69-2.18-.44-1.45-.7-2.39-.7-3.73,0-.31,0-.73.09-1.14h24.78c.09.62.09,1.04.09,1.45,0,.93-.09,1.45-.44,2.59-1.75.73-3.41,1.35-6.13,1.76l9.37,45.63h.17l12.61-47.18c.44-1.87,1.66-2.9,3.33-2.9h4.64l13.31,50.71h.18l10.77-45.21c-2.98-.73-4.55-1.24-6.04-1.97-.53-1.45-.79-2.39-.79-3.73,0-.31,0-.73.09-1.14h18.47v1.45c0,.93,0,1.45-.26,2.59-1.4.93-2.71,1.56-5.43,1.97l-15.67,65.02h-5.17c-1.66,0-2.89-1.04-3.33-2.9l-12.61-47.29h-.17l-13.05,50.19h-5.43c-1.66,0-2.8-1.04-3.33-3.11Z"></path>
    <path id="BLACK_W" d="M161.2,133.31l-13.66-60.87c-2.98-.73-4.38-1.35-5.69-2.18-.44-1.45-.7-2.39-.7-3.73,0-.31,0-.73.09-1.14h24.78c.09.62.09,1.04.09,1.45,0,.93-.09,1.45-.44,2.59-1.75.73-3.41,1.35-6.13,1.76l9.37,45.63h.17l12.61-47.18c.44-1.87,1.66-2.9,3.33-2.9h4.64l13.31,50.71h.18l10.77-45.21c-2.98-.73-4.55-1.24-6.04-1.97-.53-1.45-.79-2.39-.79-3.73,0-.31,0-.73.09-1.14h18.47v1.45c0,.93,0,1.45-.26,2.59-1.4.93-2.71,1.56-5.43,1.97l-15.67,65.02h-5.17c-1.66,0-2.89-1.04-3.33-2.9l-12.61-47.29h-.17l-13.05,50.19h-5.43c-1.66,0-2.8-1.04-3.33-3.11Z"></path>
  </g>
  <g id="NE" class="cls-3">
    <path d="M80.01,75.37h-.14l.05,23.52c1.63.19,2.54.48,3.5.86.19.53.24.77.24,1.2,0,.19,0,.38-.05.67h-10.94c-.05-.19-.05-.38-.05-.53,0-.62.14-1.06.43-1.73.77-.34,1.68-.62,3.41-.96v-25.97c-1.73-.34-2.64-.62-3.41-.96-.29-.67-.43-1.1-.43-1.73,0-.14,0-.34.05-.53h10.8l15.89,24.48h.1l-.05-21.27c-1.73-.34-2.59-.62-3.41-.96-.29-.67-.43-1.1-.43-1.73,0-.14,0-.34.05-.53h10.9c.05.29.05.48.05.67,0,.43-.05.67-.24,1.2-.96.38-1.87.67-3.5.86v30.05h-4.9l-17.91-26.64Z"></path>
    <path d="M113.08,101.1c0-.62.14-1.06.43-1.73.77-.34,1.68-.62,3.41-.96v-25.97c-1.73-.34-2.64-.62-3.41-.96-.29-.67-.43-1.1-.43-1.73,0-.14,0-.34.05-.53h23.81l.29,8.54c-.29.1-.72.14-1.06.14-.82,0-1.3-.19-2.11-.58-.86-2.4-1.15-3.36-1.58-5.67h-8.59v11.71l9.89-.38v2.93h-9.89v13.2h9.22c.43-2.16.72-3.02,1.54-5.23.82-.38,1.3-.53,2.11-.53.38,0,.86.05,1.1.1l-.24,8.16h-24.48c-.05-.19-.05-.38-.05-.53Z"></path>
  </g>
</svg>