<?xml version="1.0" encoding="UTF-8"?>
<svg id="Layer_1" xmlns="http://www.w3.org/2000/svg" viewBox="0 0 259.81 109.02">
  <defs>
    <style>
      .cls-1 {
        fill: #fff;
      }

      .cls-2 {
        isolation: isolate;
      }
    </style>
  </defs>
  <g>
    <path class="cls-1" d="M143.87,4.44l-14.98,62.17h4.44l12.22-62.49c-.49.12-1.04.23-1.67.32Z"/>
    <path class="cls-1" d="M127.28,49.38h.18l10.51-44.13c-2.91-.71-4.44-1.21-5.9-1.92-.47-1.3-.72-2.19-.75-3.33h-17l12.96,49.38Z"/>
    <path class="cls-1" d="M94.2,48.77L106.51,2.71c.35-1.48,1.2-2.41,2.38-2.71h-17.59c0,.89-.09,1.4-.43,2.51-1.71.71-3.33,1.32-5.98,1.72l9.15,44.54h.17Z"/>
    <path class="cls-1" d="M120.28,65.08l-12.31-46.16h-.17l-12.4,47.69h25.56c-.3-.42-.54-.93-.68-1.53Z"/>
    <path class="cls-1" d="M86.51,64.87h0s-10.49-46.77-10.49-46.77l-8.92,48.51h20.17c-.32-.46-.58-1.03-.76-1.74Z"/>
  </g>
  <g class="cls-2">
    <path class="cls-1" d="M7.26,8.31h-.14l.05,22.96c1.59.19,2.48.47,3.42.84.19.52.23.75.23,1.17,0,.19,0,.37-.05.65H.1c-.05-.19-.05-.37-.05-.52,0-.61.14-1.03.42-1.69.75-.33,1.64-.61,3.33-.94V5.44c-1.69-.33-2.58-.61-3.33-.94C.19,3.85.05,3.43.05,2.81c0-.14,0-.33.05-.52h10.54l15.51,23.9h.1l-.05-20.76c-1.69-.33-2.53-.61-3.33-.94-.28-.65-.42-1.07-.42-1.69,0-.14,0-.33.05-.52h10.64c.05.28.05.47.05.65,0,.42-.05.65-.23,1.17-.94.37-1.83.65-3.42.84v29.33h-4.78L7.27,8.28v.03Z"/>
    <path class="cls-1" d="M39.54,33.42c0-.61.14-1.03.42-1.69.75-.33,1.64-.61,3.33-.94V5.45c-1.69-.33-2.58-.61-3.33-.94-.28-.65-.42-1.07-.42-1.69,0-.14,0-.33.05-.52h23.24l.28,8.34c-.28.1-.7.14-1.03.14-.8,0-1.27-.19-2.06-.57-.84-2.34-1.12-3.28-1.54-5.53h-8.38v11.43l9.65-.37v2.86h-9.65v12.88h9c.42-2.11.7-2.95,1.5-5.11.8-.37,1.27-.52,2.06-.52.37,0,.84.05,1.07.1l-.23,7.97h-23.9c-.05-.19-.05-.37-.05-.52v.02Z"/>
  </g>
  <g class="cls-2">
    <path class="cls-1" d="M152.94,49.15c0-7.26.52-11.58,2.58-14.99,3.38-.47,6.79-.89,13.26-.89,11.81,0,14.39,3.51,14.39,14.81s-2.71,17.85-15.41,17.85-14.81-5.11-14.81-16.78ZM175.89,47.98c0-9.51-.23-12.08-7.59-12.08-4.69,0-5.52.05-7.36.23-.47,3.05-.75,5.44-.75,12.84,0,11.81.8,14.39,8.06,14.39,7.64,0,7.64-3.47,7.64-15.37Z"/>
    <path class="cls-1" d="M213.56,64.28c-2.29-2.16-4.4-6.04-7.97-12.8-1.31-.23-2.86-.52-4.12-.89v11.76c1.54.23,2.44.52,3.38.89.19.52.23.84.23,1.27,0,.14,0,.42-.05.65h-13.97c-.05-.19-.05-.37-.05-.52,0-.61.14-.99.42-1.69.75-.33,1.64-.61,3.38-.89v-25.68c-1.64-.23-2.58-.47-3.47-.8-.23-.57-.28-.84-.28-1.31,0-.14,0-.33.1-.57l5.11-.14c6.09-.14,8.43-.19,10.07-.19,3.75,0,6.66.14,9.84.47,1.17,2.44,2.11,4.73,2.11,8.53,0,3.14-2.21,7.08-6.84,8.06.37.42.7.89,1.07,1.41,3.61,6.56,5.29,11.06,9.79,11.06,0,1.17-.14,1.92-.42,2.53-1.03.28-1.97.47-3.33.47-2.06,0-3.61-.57-5.02-1.64h0ZM211.03,42.44c0-3-.23-4.45-.8-6.51-1.41-.05-2.95-.1-4.45-.1-1.36,0-2.95,0-4.31.05v12.65c1.5.14,2.71.14,4.35.14,3.93,0,5.2-1.97,5.2-6.23h0Z"/>
    <path class="cls-1" d="M227.85,64.7c0-.61.14-1.03.42-1.69.75-.33,1.64-.61,3.33-.94v-25.35c-1.69-.33-2.58-.61-3.33-.94-.28-.65-.42-1.07-.42-1.69,0-.14,0-.33.05-.52h14.1c.05.28.05.47.05.65,0,.42-.05.65-.19,1.17-.94.37-1.83.65-3.42.84v26.29c1.59.19,2.48.47,3.42.84.14.52.19.75.19,1.17,0,.19,0,.37-.05.65h-14.1c-.05-.19-.05-.37-.05-.52v.02ZM251.56,64.42c-1.83-1.83-4.97-5.2-12.42-15.09v-.14l4.27-3.8,7.16-8.8c-1.31-.28-2.11-.52-2.76-.8-.37-.65-.52-1.07-.52-1.69,0-.14,0-.33.05-.52h11.2v.65c0,.42,0,.65-.14,1.17-.94.52-1.78.84-3.88,1.03l-9.56,10.69c4.64,6.19,7.64,9.94,10.02,12.65,2.01,2.44,2.86,2.95,4.82,3.09,0,1.22-.14,1.69-.37,2.34-.99.28-2.21.61-3.18.61-2.11,0-3.28-.19-4.69-1.41h0Z"/>
  </g>
  <g>
    <path class="cls-1" d="M5.45,78.49c-.06-.46-.27-.81-.65-1.06s-.86-.38-1.42-.38c-.41,0-.76.07-1.07.2-.3.14-.55.31-.71.55-.17.23-.25.5-.25.79,0,.24.06.46.18.63s.27.32.46.44.38.21.59.28c.2.08.39.14.57.18l.94.25c.24.07.51.15.8.26.29.11.58.26.85.45.27.2.5.44.67.73s.26.66.26,1.09c0,.5-.13.95-.39,1.35s-.63.72-1.13.96-1.1.35-1.81.35c-.66,0-1.23-.11-1.72-.32-.48-.21-.86-.51-1.13-.89-.27-.38-.43-.83-.47-1.33h1.15c.03.35.15.63.35.86s.47.4.78.51.65.17,1.02.17c.43,0,.81-.07,1.15-.2s.61-.33.81-.59.29-.55.29-.88c0-.3-.09-.56-.25-.75-.18-.2-.4-.35-.67-.47-.28-.12-.59-.22-.91-.31l-1.13-.32c-.72-.2-1.29-.51-1.71-.89s-.63-.89-.63-1.51c0-.52.14-.97.42-1.36s.66-.68,1.13-.9c.48-.21,1.01-.32,1.6-.32s1.12.11,1.58.32.83.5,1.1.87.42.78.43,1.25h-1.08,0Z"/>
    <path class="cls-1" d="M63.38,85.41v-9.22h3.11c.72,0,1.32.13,1.78.39.46.26.8.61,1.02,1.05s.33.94.33,1.47-.11,1.03-.33,1.48-.56.8-1.02,1.06c-.46.26-1.04.39-1.77.39h-2.24v-1h2.2c.5,0,.9-.09,1.19-.25.3-.18.52-.4.65-.69s.2-.62.2-1-.07-.7-.2-1-.36-.52-.66-.68-.7-.25-1.21-.25h-1.96v8.24h-1.11.02Z"/>
    <path class="cls-1" d="M126.69,85.41h-1.17l3.39-9.22h1.15l3.39,9.22h-1.17l-2.76-7.77h-.07l-2.76,7.77h0ZM127.13,81.81h4.72v1h-4.72v-1Z"/>
    <path class="cls-1" d="M197.2,79.06h-1.11c-.07-.32-.19-.61-.34-.85-.17-.24-.36-.45-.6-.61s-.49-.29-.77-.38-.58-.13-.88-.13c-.56,0-1.06.14-1.51.42s-.81.7-1.07,1.25c-.26.55-.4,1.22-.4,2.02s.14,1.47.4,2.02.62.97,1.07,1.25.96.42,1.51.42c.3,0,.61-.04.88-.13.28-.09.54-.2.77-.37.23-.17.43-.37.6-.61s.28-.53.34-.85h1.11c-.09.47-.23.9-.46,1.27s-.5.69-.83.95-.7.46-1.11.6-.85.2-1.32.2c-.79,0-1.48-.2-2.1-.58s-1.09-.93-1.44-1.64c-.35-.71-.53-1.55-.53-2.53s.18-1.82.53-2.52c.35-.71.83-1.26,1.44-1.64s1.31-.58,2.1-.58c.47,0,.9.07,1.32.2.41.14.78.33,1.11.6.33.26.61.58.83.95s.37.79.46,1.27h0Z"/>
    <path class="cls-1" d="M253.89,85.41v-9.22h5.57v1h-4.45v3.11h4.17v1h-4.17v3.13h4.52v1h-5.64Z"/>
  </g>
  <g class="cls-2">
    <g class="cls-2">
      <path class="cls-1" d="M45.24,104.37h-.56c-.03-.16-.09-.3-.17-.42-.08-.12-.18-.22-.3-.31s-.25-.15-.39-.19-.29-.06-.44-.06c-.28,0-.53.07-.76.21s-.41.35-.54.62c-.13.28-.2.61-.2,1.01s.07.74.2,1.01.31.48.54.62.48.21.76.21c.15,0,.3-.02.44-.06s.27-.1.39-.19c.12-.08.22-.19.3-.31.08-.12.14-.26.17-.42h.56c-.04.24-.12.45-.23.63-.11.19-.25.35-.41.47s-.35.23-.56.3c-.21.07-.42.1-.66.1-.39,0-.74-.1-1.05-.29-.31-.19-.55-.47-.72-.82-.18-.35-.26-.77-.26-1.26s.09-.91.26-1.26c.18-.35.42-.63.72-.82.31-.19.66-.29,1.05-.29.23,0,.45.03.66.1.2.07.39.17.56.3.17.13.3.29.41.47.11.18.19.4.23.63Z"/>
      <path class="cls-1" d="M47.47,107.61c-.31,0-.59-.07-.82-.22s-.42-.36-.55-.62c-.13-.27-.2-.58-.2-.94s.07-.68.2-.94c.13-.27.32-.48.55-.63s.51-.22.82-.22.59.07.82.22.42.36.55.63c.13.27.2.58.2.94s-.07.67-.2.94c-.13.27-.31.48-.55.62s-.51.22-.82.22ZM47.47,107.13c.24,0,.43-.06.59-.18s.27-.28.34-.48c.07-.2.11-.41.11-.64s-.04-.45-.11-.65c-.07-.2-.19-.36-.34-.48s-.35-.18-.59-.18-.43.06-.59.18c-.15.12-.27.29-.34.48-.07.2-.11.42-.11.65s.04.45.11.64.19.36.34.48c.15.12.35.18.59.18Z"/>
      <path class="cls-1" d="M51.84,105.31v.5h-2.02v-.5h2.02Z"/>
      <path class="cls-1" d="M53.68,107.54l-1.26-4.61h.57l.96,3.76h.05l.98-3.76h.63l.98,3.76h.04l.96-3.76h.57l-1.26,4.61h-.58l-1.02-3.68h-.04l-1.02,3.68h-.58Z"/>
      <path class="cls-1" d="M60.2,107.61c-.31,0-.59-.07-.82-.22s-.42-.36-.55-.62c-.13-.27-.2-.58-.2-.94s.07-.68.2-.94c.13-.27.32-.48.55-.63s.51-.22.82-.22.59.07.82.22.42.36.55.63c.13.27.2.58.2.94s-.07.67-.2.94c-.13.27-.31.48-.55.62s-.51.22-.82.22ZM60.2,107.13c.24,0,.43-.06.59-.18s.27-.28.34-.48c.07-.2.11-.41.11-.64s-.04-.45-.11-.65c-.07-.2-.19-.36-.34-.48s-.35-.18-.59-.18-.43.06-.59.18c-.15.12-.27.29-.34.48-.07.2-.11.42-.11.65s.04.45.11.64.19.36.34.48c.15.12.35.18.59.18Z"/>
      <path class="cls-1" d="M62.58,107.54v-3.46h.51v.52h.04c.06-.17.18-.31.34-.42.17-.11.35-.16.56-.16.04,0,.09,0,.15,0,.06,0,.1,0,.13,0v.54s-.06-.01-.12-.02-.13-.01-.2-.01c-.17,0-.32.03-.45.1-.13.07-.23.17-.31.29-.08.12-.11.26-.11.42v2.19h-.53Z"/>
      <path class="cls-1" d="M64.94,107.54v-4.61h.53v4.61h-.53ZM65.44,106.28v-.66s.1,0,.1,0l1.51-1.54h.66l-1.61,1.63h-.04l-.61.57ZM67.14,107.54l-1.35-1.71.38-.37,1.65,2.08h-.68Z"/>
      <path class="cls-1" d="M68.66,103.5c-.1,0-.19-.04-.27-.11s-.11-.16-.11-.25.04-.18.11-.25.16-.11.27-.11.19.04.27.11.11.16.11.25-.04.18-.11.25-.16.11-.27.11ZM68.39,107.54v-3.46h.53v3.46h-.53Z"/>
      <path class="cls-1" d="M70.43,105.46v2.08h-.53v-3.46h.51v.54h.04c.08-.18.2-.32.37-.43.16-.11.38-.16.64-.16.23,0,.44.05.62.14s.31.24.41.43c.1.19.15.44.15.73v2.2h-.53v-2.16c0-.27-.07-.48-.21-.64-.14-.15-.33-.23-.58-.23-.17,0-.32.04-.45.11s-.24.18-.31.32-.11.31-.11.51Z"/>
      <path class="cls-1" d="M75.01,108.91c-.26,0-.48-.03-.66-.1-.18-.06-.34-.15-.46-.26-.12-.11-.22-.22-.29-.34l.42-.3c.05.06.11.14.18.22.07.08.17.15.3.21.13.06.3.09.51.09.28,0,.51-.07.69-.2.18-.14.27-.35.27-.64v-.7h-.04c-.04.06-.09.14-.17.23-.07.09-.17.17-.31.25s-.31.11-.54.11c-.28,0-.53-.07-.75-.2-.22-.13-.4-.32-.52-.58-.13-.25-.19-.56-.19-.92s.06-.66.19-.93c.12-.26.3-.47.52-.61s.48-.22.77-.22c.23,0,.4.04.54.11s.23.16.31.25c.07.09.13.17.17.23h.05v-.55h.51v3.56c0,.3-.07.54-.2.73s-.31.33-.54.41c-.23.09-.48.13-.75.13ZM74.99,107.01c.21,0,.39-.05.54-.15.15-.1.26-.24.34-.42.08-.18.11-.4.11-.66s-.04-.47-.11-.66c-.08-.19-.19-.34-.33-.45-.15-.11-.33-.16-.55-.16s-.41.06-.56.17c-.15.11-.26.27-.34.46s-.11.41-.11.64.04.45.11.64.19.33.34.43c.15.1.34.16.56.16Z"/>
      <path class="cls-1" d="M79.33,102.92h.67l1.57,3.83h.05l1.57-3.83h.67v4.61h-.52v-3.51h-.05l-1.44,3.51h-.5l-1.44-3.51h-.05v3.51h-.52v-4.61Z"/>
      <path class="cls-1" d="M86.35,107.61c-.33,0-.62-.07-.86-.22s-.43-.36-.56-.62c-.13-.27-.19-.58-.19-.93s.06-.67.19-.94c.13-.27.31-.48.55-.64s.51-.23.82-.23c.18,0,.36.03.53.09.18.06.34.16.48.29.14.13.26.31.35.53.09.22.13.49.13.82v.23h-2.67v-.46h2.13c0-.2-.04-.37-.12-.52-.08-.15-.19-.27-.33-.36s-.31-.13-.5-.13c-.21,0-.39.05-.55.16-.15.1-.27.24-.36.41-.08.17-.12.35-.12.54v.31c0,.26.05.48.14.66.09.18.22.32.38.41.16.09.35.14.57.14.14,0,.27-.02.38-.06s.21-.1.29-.18.15-.18.19-.3l.51.14c-.05.17-.15.33-.27.46-.13.13-.29.23-.47.31s-.4.11-.63.11Z"/>
      <path class="cls-1" d="M88.6,107.54v-3.46h.51v.54h.04c.07-.18.19-.33.35-.43s.35-.15.58-.15.42.05.57.15c.15.1.27.25.36.43h.04c.09-.18.22-.32.4-.43s.39-.16.64-.16c.31,0,.56.1.76.29.2.19.3.49.3.9v2.32h-.53v-2.32c0-.26-.07-.44-.21-.55s-.3-.16-.49-.16c-.24,0-.43.07-.57.22-.13.15-.2.33-.2.55v2.25h-.54v-2.37c0-.2-.06-.36-.19-.48-.13-.12-.29-.18-.49-.18-.14,0-.27.04-.39.11-.12.07-.22.18-.29.31-.07.13-.11.28-.11.45v2.16h-.53Z"/>
      <path class="cls-1" d="M94.18,107.54v-4.61h.53v1.7h.05c.04-.06.09-.14.16-.23.07-.09.17-.18.3-.25.13-.07.31-.11.53-.11.29,0,.55.07.77.22.22.15.4.35.52.62.12.27.19.58.19.95s-.06.68-.19.95c-.12.27-.3.48-.52.62-.22.15-.48.22-.76.22-.22,0-.4-.04-.53-.11-.13-.07-.24-.16-.31-.25-.07-.1-.13-.18-.17-.24h-.06v.53h-.51ZM94.71,105.81c0,.26.04.49.11.69s.19.35.34.47c.15.11.33.17.54.17s.41-.06.56-.18.26-.28.34-.48.11-.42.11-.67-.04-.46-.11-.66c-.07-.2-.19-.35-.34-.47-.15-.11-.34-.17-.56-.17s-.4.05-.55.16c-.15.11-.26.26-.33.45-.07.19-.11.42-.11.68Z"/>
      <path class="cls-1" d="M99.5,107.61c-.33,0-.62-.07-.86-.22s-.43-.36-.56-.62c-.13-.27-.19-.58-.19-.93s.06-.67.19-.94c.13-.27.31-.48.55-.64s.51-.23.82-.23c.18,0,.36.03.53.09.18.06.34.16.48.29.14.13.26.31.35.53.09.22.13.49.13.82v.23h-2.67v-.46h2.13c0-.2-.04-.37-.12-.52-.08-.15-.19-.27-.33-.36s-.31-.13-.5-.13c-.21,0-.39.05-.55.16-.15.1-.27.24-.36.41-.08.17-.12.35-.12.54v.31c0,.26.05.48.14.66.09.18.22.32.38.41.16.09.35.14.57.14.14,0,.27-.02.38-.06s.21-.1.29-.18.15-.18.19-.3l.51.14c-.05.17-.15.33-.27.46-.13.13-.29.23-.47.31s-.4.11-.63.11Z"/>
      <path class="cls-1" d="M101.75,107.54v-3.46h.51v.52h.04c.06-.17.18-.31.34-.42.17-.11.35-.16.56-.16.04,0,.09,0,.15,0,.06,0,.1,0,.13,0v.54s-.06-.01-.12-.02-.13-.01-.2-.01c-.17,0-.32.03-.45.1-.13.07-.23.17-.31.29-.08.12-.11.26-.11.42v2.19h-.53Z"/>
      <path class="cls-1" d="M106.56,104.85l-.48.13c-.03-.08-.07-.16-.13-.23-.06-.08-.14-.14-.24-.19s-.23-.07-.38-.07c-.21,0-.39.05-.53.15-.14.1-.21.22-.21.37,0,.13.05.24.14.31.1.08.25.14.45.19l.51.13c.31.08.54.19.69.34.15.15.23.35.23.59,0,.2-.06.38-.17.53s-.27.28-.47.37c-.2.09-.44.14-.71.14-.35,0-.64-.08-.88-.23-.23-.15-.38-.38-.44-.67l.5-.13c.05.19.14.33.27.42.13.09.31.14.53.14.25,0,.45-.05.59-.16.15-.11.22-.23.22-.38,0-.12-.04-.22-.13-.3-.08-.08-.21-.14-.39-.18l-.58-.14c-.32-.07-.55-.19-.7-.35-.15-.16-.22-.36-.22-.6,0-.2.05-.37.17-.52s.26-.27.45-.35.41-.13.65-.13c.34,0,.61.08.81.23.2.15.34.35.42.59Z"/>
      <path class="cls-1" d="M107.96,105.46v2.08h-.53v-4.61h.53v1.69h.04c.08-.18.2-.32.37-.43s.38-.16.65-.16c.24,0,.44.05.62.14.18.09.32.24.41.43.1.19.15.44.15.74v2.2h-.53v-2.16c0-.27-.07-.49-.21-.64-.14-.15-.34-.23-.59-.23-.17,0-.33.04-.47.11s-.25.18-.32.32c-.08.14-.12.31-.12.51Z"/>
      <path class="cls-1" d="M111.44,103.5c-.1,0-.19-.04-.27-.11s-.11-.16-.11-.25.04-.18.11-.25.16-.11.27-.11.19.04.27.11.11.16.11.25-.04.18-.11.25-.16.11-.27.11ZM111.17,107.54v-3.46h.53v3.46h-.53Z"/>
      <path class="cls-1" d="M112.68,108.84v-4.76h.51v.55h.06c.04-.06.09-.14.16-.23.07-.09.17-.18.3-.25.13-.07.31-.11.54-.11.29,0,.55.07.77.22.22.15.4.35.52.62.12.27.19.58.19.95s-.06.68-.19.95-.3.48-.52.62c-.22.15-.48.22-.76.22-.22,0-.4-.04-.53-.11s-.24-.16-.31-.25c-.07-.1-.13-.18-.17-.24h-.04v1.83h-.53ZM113.2,105.81c0,.26.04.49.11.69.08.2.19.35.34.47.15.11.33.17.54.17s.41-.06.56-.18c.15-.12.26-.28.34-.48.08-.2.11-.42.11-.67s-.04-.46-.11-.66c-.07-.2-.19-.35-.34-.47-.15-.11-.34-.17-.56-.17s-.4.05-.55.16c-.15.11-.26.26-.33.45s-.11.42-.11.68Z"/>
      <path class="cls-1" d="M118.99,104.85l-.48.13c-.03-.08-.07-.16-.13-.23-.06-.08-.14-.14-.24-.19s-.23-.07-.38-.07c-.21,0-.39.05-.53.15-.14.1-.21.22-.21.37,0,.13.05.24.14.31.1.08.25.14.45.19l.51.13c.31.08.54.19.69.34.15.15.23.35.23.59,0,.2-.06.38-.17.53s-.27.28-.47.37c-.2.09-.44.14-.71.14-.35,0-.65-.08-.88-.23-.23-.15-.38-.38-.44-.67l.5-.13c.05.19.14.33.27.42.13.09.31.14.53.14.25,0,.45-.05.59-.16s.22-.23.22-.38c0-.12-.04-.22-.13-.3s-.21-.14-.39-.18l-.58-.14c-.32-.07-.55-.19-.7-.35s-.22-.36-.22-.6c0-.2.06-.37.17-.52s.26-.27.45-.35.41-.13.65-.13c.34,0,.61.08.81.23.2.15.34.35.42.59Z"/>
      <path class="cls-1" d="M124.2,101.44v7.59h-.45v-7.59h.45Z"/>
      <path class="cls-1" d="M129.14,107.54v-4.61h2.78v.5h-2.23v1.56h2.08v.5h-2.08v1.57h2.26v.5h-2.82Z"/>
      <path class="cls-1" d="M135.69,104.08l-1.28,3.46h-.54l-1.28-3.46h.58l.96,2.76h.04l.96-2.76h.58Z"/>
      <path class="cls-1" d="M137.85,107.61c-.33,0-.62-.07-.86-.22s-.43-.36-.56-.62c-.13-.27-.19-.58-.19-.93s.06-.67.19-.94c.13-.27.31-.48.55-.64s.51-.23.82-.23c.18,0,.36.03.53.09.18.06.34.16.48.29s.26.31.35.53c.08.22.13.49.13.82v.23h-2.67v-.46h2.13c0-.2-.04-.37-.12-.52-.08-.15-.19-.27-.33-.36s-.31-.13-.5-.13c-.21,0-.39.05-.55.16-.15.1-.27.24-.36.41-.08.17-.12.35-.12.54v.31c0,.26.05.48.14.66.09.18.22.32.38.41.16.09.35.14.57.14.14,0,.27-.02.38-.06s.21-.1.29-.18c.08-.08.15-.18.19-.3l.51.14c-.05.17-.15.33-.27.46-.13.13-.29.23-.47.31s-.4.11-.63.11Z"/>
      <path class="cls-1" d="M140.62,105.46v2.08h-.53v-3.46h.51v.54h.04c.08-.18.2-.32.37-.43.16-.11.38-.16.64-.16.23,0,.44.05.61.14.18.1.31.24.41.43.1.19.15.44.15.73v2.2h-.53v-2.16c0-.27-.07-.48-.21-.64s-.33-.23-.58-.23c-.17,0-.32.04-.45.11-.13.07-.24.18-.31.32-.08.14-.11.31-.11.51Z"/>
      <path class="cls-1" d="M145.31,104.08v.45h-1.79v-.45h1.79ZM144.04,103.25h.53v3.3c0,.15.02.26.07.34.04.07.1.12.17.15.07.02.14.04.22.04.06,0,.11,0,.14,0,.04,0,.07-.01.09-.02l.11.48s-.09.03-.15.04-.15.02-.25.02c-.15,0-.3-.03-.44-.1-.14-.06-.26-.16-.36-.3-.09-.13-.14-.3-.14-.5v-3.44Z"/>
      <path class="cls-1" d="M150.49,104.08c-.03-.23-.14-.41-.33-.53-.19-.13-.43-.19-.71-.19-.2,0-.38.03-.53.1-.15.07-.27.16-.36.27s-.13.25-.13.39c0,.12.03.23.09.32s.14.16.23.22.19.1.29.14.2.07.28.09l.47.13c.12.03.25.08.4.13s.29.13.43.23c.14.1.25.22.34.37s.13.33.13.55c0,.25-.07.47-.2.68s-.32.36-.57.48c-.25.12-.55.18-.9.18-.33,0-.62-.05-.86-.16s-.43-.26-.57-.45c-.14-.19-.22-.41-.23-.66h.58c.02.17.07.32.18.43.1.11.23.2.39.25.16.06.33.08.51.08.21,0,.4-.04.57-.1.17-.07.3-.17.4-.29.1-.12.15-.27.15-.44,0-.15-.04-.28-.13-.37-.09-.1-.2-.17-.34-.23-.14-.06-.29-.11-.45-.16l-.57-.16c-.36-.1-.65-.25-.86-.44-.21-.19-.32-.44-.32-.75,0-.26.07-.48.21-.68.14-.19.33-.34.57-.45s.5-.16.8-.16.56.05.79.16c.23.11.41.25.55.43.14.18.21.39.21.62h-.54Z"/>
      <path class="cls-1" d="M151.94,108.84v-4.76h.51v.55h.06c.04-.06.09-.14.16-.23.07-.09.17-.18.3-.25.13-.07.31-.11.54-.11.29,0,.55.07.77.22.22.15.4.35.52.62.12.27.19.58.19.95s-.06.68-.19.95-.3.48-.52.62c-.22.15-.48.22-.76.22-.22,0-.4-.04-.53-.11s-.24-.16-.31-.25c-.07-.1-.13-.18-.17-.24h-.04v1.83h-.53ZM152.47,105.81c0,.26.04.49.11.69.08.2.19.35.34.47.15.11.33.17.54.17s.41-.06.56-.18c.15-.12.26-.28.34-.48.08-.2.11-.42.11-.67s-.04-.46-.11-.66c-.07-.2-.19-.35-.34-.47-.15-.11-.34-.17-.56-.17s-.4.05-.55.16c-.15.11-.26.26-.33.45s-.11.42-.11.68Z"/>
      <path class="cls-1" d="M156.83,107.62c-.22,0-.42-.04-.6-.12-.18-.08-.32-.2-.43-.36-.11-.16-.16-.35-.16-.58,0-.2.04-.36.12-.48s.18-.22.31-.29c.13-.07.27-.12.43-.16.16-.04.32-.06.48-.08.21-.03.38-.05.51-.06.13-.01.23-.04.29-.07.06-.03.09-.09.09-.18v-.02c0-.22-.06-.39-.18-.52-.12-.12-.3-.18-.55-.18s-.45.06-.6.17c-.14.11-.25.23-.3.36l-.51-.18c.09-.21.21-.37.36-.49.15-.12.32-.2.5-.25.18-.05.36-.07.53-.07.11,0,.24.01.38.04.14.03.29.08.42.16.14.08.25.2.34.37.09.16.14.38.14.66v2.28h-.53v-.47h-.03c-.04.08-.1.16-.18.24-.08.09-.2.16-.34.22-.14.06-.31.09-.51.09ZM156.91,107.14c.21,0,.39-.04.53-.12s.25-.19.33-.32.11-.27.11-.41v-.49s-.07.05-.15.07-.16.04-.26.06c-.1.02-.19.03-.29.04s-.17.02-.22.03c-.14.02-.27.05-.39.09-.12.04-.22.1-.29.18-.07.08-.11.19-.11.32,0,.18.07.32.21.42.14.09.31.14.52.14Z"/>
      <path class="cls-1" d="M160.79,107.61c-.33,0-.6-.08-.84-.23-.23-.15-.41-.37-.54-.63-.13-.27-.19-.58-.19-.92s.06-.66.19-.93.31-.48.55-.63.51-.23.82-.23c.24,0,.46.04.66.14.2.09.36.22.48.38s.2.35.23.57h-.53c-.04-.16-.13-.3-.27-.42-.14-.12-.33-.18-.56-.18-.21,0-.39.05-.54.16-.16.11-.28.26-.36.45-.09.19-.13.42-.13.68s.04.5.13.7.2.35.36.46.34.16.55.16c.14,0,.26-.02.38-.07.11-.05.21-.12.29-.21.08-.09.13-.2.17-.32h.53c-.03.2-.1.39-.22.55-.12.16-.27.29-.47.39-.19.1-.42.14-.67.14Z"/>
      <path class="cls-1" d="M164.38,107.61c-.33,0-.62-.07-.86-.22s-.43-.36-.56-.62c-.13-.27-.2-.58-.2-.93s.06-.67.2-.94c.13-.27.31-.48.55-.64s.51-.23.82-.23c.18,0,.36.03.53.09s.34.16.48.29c.14.13.26.31.35.53.09.22.13.49.13.82v.23h-2.67v-.46h2.13c0-.2-.04-.37-.12-.52-.08-.15-.19-.27-.33-.36s-.31-.13-.5-.13c-.21,0-.39.05-.55.16-.15.1-.27.24-.35.41s-.12.35-.12.54v.31c0,.26.05.48.14.66s.22.32.38.41c.16.09.35.14.57.14.14,0,.27-.02.38-.06s.21-.1.29-.18c.08-.08.15-.18.19-.3l.51.14c-.05.17-.14.33-.27.46-.13.13-.29.23-.47.31s-.4.11-.63.11Z"/>
      <path class="cls-1" d="M170.97,101.44v7.59h-.45v-7.59h.45Z"/>
      <path class="cls-1" d="M175.91,107.54v-4.61h1.56c.36,0,.66.06.89.2.23.13.4.31.51.53.11.22.17.47.17.74s-.06.52-.17.74c-.11.22-.28.4-.51.53-.23.13-.52.2-.88.2h-1.12v-.5h1.1c.25,0,.45-.04.6-.13.15-.09.26-.2.33-.35.07-.15.1-.31.1-.5s-.03-.35-.1-.5c-.07-.15-.18-.26-.33-.34-.15-.08-.35-.12-.6-.12h-.98v4.12h-.56Z"/>
      <path class="cls-1" d="M179.86,107.54v-3.46h.51v.52h.04c.06-.17.18-.31.34-.42.17-.11.35-.16.56-.16.04,0,.09,0,.15,0,.06,0,.1,0,.13,0v.54s-.06-.01-.12-.02-.13-.01-.2-.01c-.17,0-.32.03-.45.1-.13.07-.24.17-.31.29-.08.12-.11.26-.11.42v2.19h-.53Z"/>
      <path class="cls-1" d="M182.49,103.5c-.1,0-.19-.04-.27-.11s-.11-.16-.11-.25.04-.18.11-.25.16-.11.27-.11.19.04.27.11.11.16.11.25-.04.18-.11.25-.16.11-.27.11ZM182.22,107.54v-3.46h.53v3.46h-.53Z"/>
      <path class="cls-1" d="M186.56,104.08l-1.28,3.46h-.54l-1.28-3.46h.58l.96,2.76h.04l.96-2.76h.58Z"/>
      <path class="cls-1" d="M188.28,107.62c-.22,0-.42-.04-.6-.12-.18-.08-.32-.2-.43-.36-.11-.16-.16-.35-.16-.58,0-.2.04-.36.12-.48s.18-.22.31-.29c.13-.07.27-.12.43-.16.16-.04.32-.06.48-.08.21-.03.38-.05.51-.06.13-.01.23-.04.29-.07.06-.03.09-.09.09-.18v-.02c0-.22-.06-.39-.18-.52-.12-.12-.3-.18-.55-.18s-.45.06-.6.17c-.14.11-.25.23-.3.36l-.51-.18c.09-.21.21-.37.36-.49.15-.12.32-.2.5-.25.18-.05.36-.07.53-.07.11,0,.24.01.38.04.14.03.29.08.42.16.14.08.25.2.34.37.09.16.14.38.14.66v2.28h-.53v-.47h-.03c-.04.08-.1.16-.18.24-.08.09-.2.16-.34.22-.14.06-.31.09-.51.09ZM188.36,107.14c.21,0,.39-.04.53-.12s.25-.19.33-.32.11-.27.11-.41v-.49s-.07.05-.15.07-.16.04-.26.06c-.1.02-.19.03-.29.04s-.17.02-.22.03c-.14.02-.27.05-.39.09-.12.04-.22.1-.29.18-.07.08-.11.19-.11.32,0,.18.07.32.21.42.14.09.31.14.52.14Z"/>
      <path class="cls-1" d="M192.35,104.08v.45h-1.79v-.45h1.79ZM191.07,103.25h.53v3.3c0,.15.02.26.07.34.04.07.1.12.17.15s.14.04.22.04c.06,0,.11,0,.14,0,.04,0,.07-.01.09-.02l.11.48s-.09.03-.15.04c-.06.01-.15.02-.25.02-.15,0-.3-.03-.44-.1-.14-.06-.26-.16-.36-.3-.09-.13-.14-.3-.14-.5v-3.44Z"/>
      <path class="cls-1" d="M194.6,107.61c-.33,0-.62-.07-.86-.22s-.43-.36-.56-.62c-.13-.27-.2-.58-.2-.93s.06-.67.2-.94c.13-.27.31-.48.55-.64s.51-.23.82-.23c.18,0,.36.03.53.09s.34.16.48.29c.14.13.26.31.35.53.09.22.13.49.13.82v.23h-2.67v-.46h2.13c0-.2-.04-.37-.12-.52-.08-.15-.19-.27-.33-.36s-.31-.13-.5-.13c-.21,0-.39.05-.55.16-.15.1-.27.24-.35.41s-.12.35-.12.54v.31c0,.26.05.48.14.66s.22.32.38.41c.16.09.35.14.57.14.14,0,.27-.02.38-.06s.21-.1.29-.18c.08-.08.15-.18.19-.3l.51.14c-.05.17-.14.33-.27.46-.13.13-.29.23-.47.31s-.4.11-.63.11Z"/>
      <path class="cls-1" d="M202.59,105.23c0,.49-.09.91-.26,1.26-.18.35-.42.63-.72.82-.31.19-.66.29-1.05.29s-.74-.1-1.05-.29c-.31-.19-.55-.47-.72-.82-.18-.35-.26-.77-.26-1.26s.09-.91.26-1.26c.18-.35.42-.63.72-.82.31-.19.66-.29,1.05-.29s.74.1,1.05.29c.31.19.55.47.72.82.18.35.26.77.26,1.26ZM202.05,105.23c0-.4-.07-.74-.2-1.01-.13-.27-.31-.48-.54-.62s-.48-.21-.76-.21-.53.07-.76.21-.41.35-.54.62c-.13.28-.2.61-.2,1.01s.07.74.2,1.01c.13.27.31.48.54.62s.48.21.76.21.53-.07.76-.21.41-.35.54-.62c.13-.27.2-.61.2-1.01Z"/>
      <path class="cls-1" d="M205,104.08v.45h-1.87v-.45h1.87ZM203.69,107.54v-3.94c0-.2.05-.36.14-.5.09-.13.21-.23.36-.3.15-.07.31-.1.47-.1.13,0,.24.01.32.03.08.02.14.04.18.06l-.15.46s-.06-.02-.11-.03c-.05-.01-.11-.02-.19-.02-.18,0-.3.04-.38.13-.08.09-.12.22-.12.39v3.81h-.53Z"/>
      <path class="cls-1" d="M207.29,104.08v.45h-1.87v-.45h1.87ZM205.98,107.54v-3.94c0-.2.05-.36.14-.5.09-.13.21-.23.36-.3.15-.07.31-.1.47-.1.13,0,.24.01.32.03.08.02.14.04.18.06l-.15.46s-.06-.02-.11-.03c-.05-.01-.11-.02-.19-.02-.18,0-.3.04-.38.13-.08.09-.12.22-.12.39v3.81h-.53Z"/>
      <path class="cls-1" d="M208.31,103.5c-.1,0-.19-.04-.27-.11s-.11-.16-.11-.25.04-.18.11-.25.16-.11.27-.11.19.04.27.11.11.16.11.25-.04.18-.11.25-.16.11-.27.11ZM208.04,107.54v-3.46h.53v3.46h-.53Z"/>
      <path class="cls-1" d="M210.95,107.61c-.33,0-.6-.08-.84-.23-.23-.15-.41-.37-.54-.63-.13-.27-.19-.58-.19-.92s.06-.66.19-.93.31-.48.55-.63.51-.23.82-.23c.24,0,.46.04.66.14.2.09.36.22.48.38s.2.35.23.57h-.53c-.04-.16-.13-.3-.27-.42-.14-.12-.33-.18-.56-.18-.21,0-.39.05-.54.16-.16.11-.28.26-.36.45-.09.19-.13.42-.13.68s.04.5.13.7.2.35.36.46.34.16.55.16c.14,0,.26-.02.38-.07.11-.05.21-.12.29-.21.08-.09.13-.2.17-.32h.53c-.03.2-.1.39-.22.55-.12.16-.27.29-.47.39-.19.1-.42.14-.67.14Z"/>
      <path class="cls-1" d="M214.53,107.61c-.33,0-.62-.07-.86-.22s-.43-.36-.56-.62c-.13-.27-.2-.58-.2-.93s.06-.67.2-.94c.13-.27.31-.48.55-.64s.51-.23.82-.23c.18,0,.36.03.53.09s.34.16.48.29c.14.13.26.31.35.53.09.22.13.49.13.82v.23h-2.67v-.46h2.13c0-.2-.04-.37-.12-.52-.08-.15-.19-.27-.33-.36s-.31-.13-.5-.13c-.21,0-.39.05-.55.16-.15.1-.27.24-.35.41s-.12.35-.12.54v.31c0,.26.05.48.14.66s.22.32.38.41c.16.09.35.14.57.14.14,0,.27-.02.38-.06s.21-.1.29-.18c.08-.08.15-.18.19-.3l.51.14c-.05.17-.14.33-.27.46-.13.13-.29.23-.47.31s-.4.11-.63.11Z"/>
      <path class="cls-1" d="M219.23,104.85l-.48.13c-.03-.08-.07-.16-.13-.23-.06-.08-.14-.14-.24-.19s-.23-.07-.38-.07c-.21,0-.39.05-.53.15-.14.1-.21.22-.21.37,0,.13.05.24.14.31.1.08.25.14.45.19l.51.13c.31.08.54.19.69.34.15.15.23.35.23.59,0,.2-.06.38-.17.53s-.27.28-.47.37c-.2.09-.44.14-.71.14-.35,0-.64-.08-.88-.23-.23-.15-.38-.38-.44-.67l.51-.13c.05.19.14.33.27.42.13.09.31.14.53.14.25,0,.45-.05.59-.16.15-.11.22-.23.22-.38,0-.12-.04-.22-.13-.3-.08-.08-.21-.14-.39-.18l-.58-.14c-.32-.07-.55-.19-.7-.35-.15-.16-.22-.36-.22-.6,0-.2.05-.37.16-.52s.26-.27.45-.35.41-.13.65-.13c.34,0,.61.08.81.23.2.15.34.35.42.59Z"/>
    </g>
  </g>
</svg>
